<mxfile host="Electron" modified="2023-09-02T12:02:43.641Z" agent="Mozilla/5.0 (Windows NT 10.0; Win64; x64) AppleWebKit/537.36 (KHTML, like Gecko) draw.io/21.6.8 Chrome/114.0.5735.289 Electron/25.5.0 Safari/537.36" etag="SMutyMyai1cnpmFBt83N" version="21.6.8" type="device">
  <diagram name="Page-1" id="pZi6HRJ7dtZ6i4HZ8GlW">
    <mxGraphModel dx="797" dy="466" grid="1" gridSize="10" guides="1" tooltips="1" connect="1" arrows="1" fold="1" page="1" pageScale="1" pageWidth="850" pageHeight="1100" math="0" shadow="0">
      <root>
        <mxCell id="0" />
        <mxCell id="1" parent="0" />
        <mxCell id="7pLJqojAysfesaYuLBsF-3" value="" style="ellipse;whiteSpace=wrap;html=1;aspect=fixed;fillColor=#dae8fc;strokeColor=#6c8ebf;" vertex="1" parent="1">
          <mxGeometry x="80" y="80" width="40" height="40" as="geometry" />
        </mxCell>
        <mxCell id="7pLJqojAysfesaYuLBsF-4" value="" style="ellipse;whiteSpace=wrap;html=1;aspect=fixed;fillColor=#dae8fc;strokeColor=#6c8ebf;" vertex="1" parent="1">
          <mxGeometry x="760" y="80" width="40" height="40" as="geometry" />
        </mxCell>
        <mxCell id="7pLJqojAysfesaYuLBsF-5" value="" style="endArrow=none;html=1;rounded=0;" edge="1" parent="1" source="7pLJqojAysfesaYuLBsF-26">
          <mxGeometry width="50" height="50" relative="1" as="geometry">
            <mxPoint x="180" y="260" as="sourcePoint" />
            <mxPoint x="580" y="260" as="targetPoint" />
          </mxGeometry>
        </mxCell>
        <mxCell id="7pLJqojAysfesaYuLBsF-11" value="" style="ellipse;whiteSpace=wrap;html=1;aspect=fixed;fillColor=#e1d5e7;strokeColor=#9673a6;" vertex="1" parent="1">
          <mxGeometry x="200" y="240" width="40" height="40" as="geometry" />
        </mxCell>
        <mxCell id="7pLJqojAysfesaYuLBsF-14" value="" style="endArrow=none;html=1;rounded=0;exitX=1;exitY=0.5;exitDx=0;exitDy=0;" edge="1" parent="1" source="7pLJqojAysfesaYuLBsF-11" target="7pLJqojAysfesaYuLBsF-13">
          <mxGeometry width="50" height="50" relative="1" as="geometry">
            <mxPoint x="240" y="260" as="sourcePoint" />
            <mxPoint x="460" y="260" as="targetPoint" />
          </mxGeometry>
        </mxCell>
        <mxCell id="7pLJqojAysfesaYuLBsF-13" value="" style="ellipse;whiteSpace=wrap;html=1;aspect=fixed;fillColor=#e1d5e7;strokeColor=#9673a6;" vertex="1" parent="1">
          <mxGeometry x="290" y="240" width="40" height="40" as="geometry" />
        </mxCell>
        <mxCell id="7pLJqojAysfesaYuLBsF-16" value="" style="endArrow=none;html=1;rounded=0;" edge="1" parent="1" source="7pLJqojAysfesaYuLBsF-13" target="7pLJqojAysfesaYuLBsF-15">
          <mxGeometry width="50" height="50" relative="1" as="geometry">
            <mxPoint x="320" y="260" as="sourcePoint" />
            <mxPoint x="460" y="260" as="targetPoint" />
          </mxGeometry>
        </mxCell>
        <mxCell id="7pLJqojAysfesaYuLBsF-15" value="" style="ellipse;whiteSpace=wrap;html=1;aspect=fixed;fillColor=#e1d5e7;strokeColor=#9673a6;" vertex="1" parent="1">
          <mxGeometry x="400" y="240" width="40" height="40" as="geometry" />
        </mxCell>
        <mxCell id="7pLJqojAysfesaYuLBsF-21" value="" style="endArrow=none;html=1;rounded=0;" edge="1" parent="1" target="7pLJqojAysfesaYuLBsF-20">
          <mxGeometry width="50" height="50" relative="1" as="geometry">
            <mxPoint x="400" y="340" as="sourcePoint" />
            <mxPoint x="600" y="340" as="targetPoint" />
          </mxGeometry>
        </mxCell>
        <mxCell id="7pLJqojAysfesaYuLBsF-20" value="" style="ellipse;whiteSpace=wrap;html=1;aspect=fixed;fillColor=#fff2cc;strokeColor=#d6b656;" vertex="1" parent="1">
          <mxGeometry x="405" y="320" width="40" height="40" as="geometry" />
        </mxCell>
        <mxCell id="7pLJqojAysfesaYuLBsF-23" value="" style="endArrow=none;html=1;rounded=0;" edge="1" parent="1" source="7pLJqojAysfesaYuLBsF-20" target="7pLJqojAysfesaYuLBsF-22">
          <mxGeometry width="50" height="50" relative="1" as="geometry">
            <mxPoint x="445" y="340" as="sourcePoint" />
            <mxPoint x="600" y="340" as="targetPoint" />
          </mxGeometry>
        </mxCell>
        <mxCell id="7pLJqojAysfesaYuLBsF-22" value="" style="ellipse;whiteSpace=wrap;html=1;aspect=fixed;fillColor=#fff2cc;strokeColor=#d6b656;" vertex="1" parent="1">
          <mxGeometry x="460" y="320" width="40" height="40" as="geometry" />
        </mxCell>
        <mxCell id="7pLJqojAysfesaYuLBsF-26" value="" style="ellipse;whiteSpace=wrap;html=1;aspect=fixed;fillColor=#e1d5e7;strokeColor=#9673a6;" vertex="1" parent="1">
          <mxGeometry x="570" y="240" width="40" height="40" as="geometry" />
        </mxCell>
        <mxCell id="7pLJqojAysfesaYuLBsF-29" value="" style="endArrow=none;html=1;rounded=0;exitX=1;exitY=0.5;exitDx=0;exitDy=0;entryX=0;entryY=0.5;entryDx=0;entryDy=0;edgeStyle=orthogonalEdgeStyle;curved=1;" edge="1" parent="1" source="7pLJqojAysfesaYuLBsF-3" target="7pLJqojAysfesaYuLBsF-11">
          <mxGeometry width="50" height="50" relative="1" as="geometry">
            <mxPoint x="100" y="430" as="sourcePoint" />
            <mxPoint x="150" y="380" as="targetPoint" />
          </mxGeometry>
        </mxCell>
        <mxCell id="7pLJqojAysfesaYuLBsF-30" value="" style="endArrow=none;html=1;rounded=0;exitX=1;exitY=0.5;exitDx=0;exitDy=0;entryX=0;entryY=0.5;entryDx=0;entryDy=0;edgeStyle=orthogonalEdgeStyle;curved=1;" edge="1" parent="1" source="7pLJqojAysfesaYuLBsF-13" target="7pLJqojAysfesaYuLBsF-20">
          <mxGeometry width="50" height="50" relative="1" as="geometry">
            <mxPoint x="260" y="480" as="sourcePoint" />
            <mxPoint x="310" y="430" as="targetPoint" />
          </mxGeometry>
        </mxCell>
        <mxCell id="7pLJqojAysfesaYuLBsF-31" value="" style="endArrow=none;html=1;rounded=0;exitX=1;exitY=0.5;exitDx=0;exitDy=0;entryX=0;entryY=0.5;entryDx=0;entryDy=0;edgeStyle=orthogonalEdgeStyle;curved=1;" edge="1" parent="1" source="7pLJqojAysfesaYuLBsF-22" target="7pLJqojAysfesaYuLBsF-26">
          <mxGeometry width="50" height="50" relative="1" as="geometry">
            <mxPoint x="510" y="410" as="sourcePoint" />
            <mxPoint x="560" y="360" as="targetPoint" />
          </mxGeometry>
        </mxCell>
        <mxCell id="7pLJqojAysfesaYuLBsF-32" value="" style="ellipse;whiteSpace=wrap;html=1;aspect=fixed;fillColor=#f8cecc;strokeColor=#b85450;" vertex="1" parent="1">
          <mxGeometry x="680" y="160" width="40" height="40" as="geometry" />
        </mxCell>
        <mxCell id="7pLJqojAysfesaYuLBsF-36" value="" style="endArrow=none;html=1;rounded=0;exitX=1;exitY=0.5;exitDx=0;exitDy=0;entryX=0;entryY=0.5;entryDx=0;entryDy=0;" edge="1" parent="1" source="7pLJqojAysfesaYuLBsF-15" target="7pLJqojAysfesaYuLBsF-26">
          <mxGeometry width="50" height="50" relative="1" as="geometry">
            <mxPoint x="430" y="300" as="sourcePoint" />
            <mxPoint x="480" y="250" as="targetPoint" />
          </mxGeometry>
        </mxCell>
        <mxCell id="7pLJqojAysfesaYuLBsF-37" value="" style="endArrow=none;html=1;rounded=0;exitX=1;exitY=0.5;exitDx=0;exitDy=0;entryX=0;entryY=0.5;entryDx=0;entryDy=0;edgeStyle=orthogonalEdgeStyle;curved=1;" edge="1" parent="1" source="7pLJqojAysfesaYuLBsF-26" target="7pLJqojAysfesaYuLBsF-32">
          <mxGeometry width="50" height="50" relative="1" as="geometry">
            <mxPoint x="620" y="260" as="sourcePoint" />
            <mxPoint x="670" y="210" as="targetPoint" />
          </mxGeometry>
        </mxCell>
        <mxCell id="7pLJqojAysfesaYuLBsF-38" value="" style="ellipse;whiteSpace=wrap;html=1;aspect=fixed;fillColor=#f8cecc;strokeColor=#b85450;" vertex="1" parent="1">
          <mxGeometry x="760" y="160" width="40" height="40" as="geometry" />
        </mxCell>
        <mxCell id="7pLJqojAysfesaYuLBsF-39" value="" style="ellipse;whiteSpace=wrap;html=1;aspect=fixed;fillColor=#e1d5e7;strokeColor=#9673a6;" vertex="1" parent="1">
          <mxGeometry x="880" y="240" width="40" height="40" as="geometry" />
        </mxCell>
        <mxCell id="7pLJqojAysfesaYuLBsF-40" value="" style="endArrow=none;html=1;rounded=0;exitX=1;exitY=0.5;exitDx=0;exitDy=0;entryX=0;entryY=0.5;entryDx=0;entryDy=0;" edge="1" parent="1" source="7pLJqojAysfesaYuLBsF-26" target="7pLJqojAysfesaYuLBsF-39">
          <mxGeometry width="50" height="50" relative="1" as="geometry">
            <mxPoint x="700" y="390" as="sourcePoint" />
            <mxPoint x="750" y="340" as="targetPoint" />
          </mxGeometry>
        </mxCell>
        <mxCell id="7pLJqojAysfesaYuLBsF-41" value="" style="endArrow=none;html=1;rounded=0;exitX=1;exitY=0.5;exitDx=0;exitDy=0;entryX=0;entryY=0.5;entryDx=0;entryDy=0;" edge="1" parent="1" source="7pLJqojAysfesaYuLBsF-32" target="7pLJqojAysfesaYuLBsF-38">
          <mxGeometry width="50" height="50" relative="1" as="geometry">
            <mxPoint x="810" y="240" as="sourcePoint" />
            <mxPoint x="860" y="190" as="targetPoint" />
          </mxGeometry>
        </mxCell>
        <mxCell id="7pLJqojAysfesaYuLBsF-42" value="" style="endArrow=none;html=1;rounded=0;exitX=1;exitY=0.5;exitDx=0;exitDy=0;entryX=0;entryY=0.5;entryDx=0;entryDy=0;" edge="1" parent="1" source="7pLJqojAysfesaYuLBsF-3" target="7pLJqojAysfesaYuLBsF-4">
          <mxGeometry width="50" height="50" relative="1" as="geometry">
            <mxPoint x="330" y="130" as="sourcePoint" />
            <mxPoint x="380" y="80" as="targetPoint" />
          </mxGeometry>
        </mxCell>
        <mxCell id="7pLJqojAysfesaYuLBsF-44" value="" style="endArrow=none;html=1;rounded=0;entryX=0.5;entryY=1;entryDx=0;entryDy=0;exitX=0.5;exitY=0;exitDx=0;exitDy=0;" edge="1" parent="1" source="7pLJqojAysfesaYuLBsF-38" target="7pLJqojAysfesaYuLBsF-4">
          <mxGeometry width="50" height="50" relative="1" as="geometry">
            <mxPoint x="380" y="180" as="sourcePoint" />
            <mxPoint x="430" y="130" as="targetPoint" />
          </mxGeometry>
        </mxCell>
        <mxCell id="7pLJqojAysfesaYuLBsF-45" value="" style="endArrow=none;html=1;rounded=0;exitX=1;exitY=0.5;exitDx=0;exitDy=0;entryX=0;entryY=0.5;entryDx=0;entryDy=0;edgeStyle=orthogonalEdgeStyle;curved=1;" edge="1" parent="1" source="7pLJqojAysfesaYuLBsF-38" target="7pLJqojAysfesaYuLBsF-39">
          <mxGeometry width="50" height="50" relative="1" as="geometry">
            <mxPoint x="830" y="190" as="sourcePoint" />
            <mxPoint x="880" y="140" as="targetPoint" />
          </mxGeometry>
        </mxCell>
        <mxCell id="7pLJqojAysfesaYuLBsF-46" value="" style="endArrow=none;dashed=1;html=1;dashPattern=1 3;strokeWidth=2;rounded=0;exitX=1;exitY=0.5;exitDx=0;exitDy=0;" edge="1" parent="1" source="7pLJqojAysfesaYuLBsF-4">
          <mxGeometry width="50" height="50" relative="1" as="geometry">
            <mxPoint x="560" y="210" as="sourcePoint" />
            <mxPoint x="920" y="100" as="targetPoint" />
          </mxGeometry>
        </mxCell>
        <mxCell id="7pLJqojAysfesaYuLBsF-47" value="" style="endArrow=none;dashed=1;html=1;dashPattern=1 3;strokeWidth=2;rounded=0;exitX=1;exitY=0.5;exitDx=0;exitDy=0;" edge="1" parent="1" source="7pLJqojAysfesaYuLBsF-22">
          <mxGeometry width="50" height="50" relative="1" as="geometry">
            <mxPoint x="580" y="390" as="sourcePoint" />
            <mxPoint x="920" y="340" as="targetPoint" />
          </mxGeometry>
        </mxCell>
        <mxCell id="7pLJqojAysfesaYuLBsF-48" value="main" style="text;html=1;strokeColor=none;fillColor=none;align=center;verticalAlign=middle;whiteSpace=wrap;rounded=0;" vertex="1" parent="1">
          <mxGeometry x="930" y="85" width="60" height="30" as="geometry" />
        </mxCell>
        <mxCell id="7pLJqojAysfesaYuLBsF-49" value="" style="endArrow=none;dashed=1;html=1;dashPattern=1 3;strokeWidth=2;rounded=0;exitX=1;exitY=0.5;exitDx=0;exitDy=0;" edge="1" parent="1" source="7pLJqojAysfesaYuLBsF-38">
          <mxGeometry width="50" height="50" relative="1" as="geometry">
            <mxPoint x="870" y="220" as="sourcePoint" />
            <mxPoint x="920" y="180" as="targetPoint" />
          </mxGeometry>
        </mxCell>
        <mxCell id="7pLJqojAysfesaYuLBsF-52" value="release" style="text;html=1;strokeColor=none;fillColor=none;align=center;verticalAlign=middle;whiteSpace=wrap;rounded=0;" vertex="1" parent="1">
          <mxGeometry x="930" y="165" width="60" height="30" as="geometry" />
        </mxCell>
        <mxCell id="7pLJqojAysfesaYuLBsF-53" value="develop" style="text;html=1;strokeColor=none;fillColor=none;align=center;verticalAlign=middle;whiteSpace=wrap;rounded=0;" vertex="1" parent="1">
          <mxGeometry x="930" y="245" width="60" height="30" as="geometry" />
        </mxCell>
        <mxCell id="7pLJqojAysfesaYuLBsF-54" value="feature" style="text;html=1;strokeColor=none;fillColor=none;align=center;verticalAlign=middle;whiteSpace=wrap;rounded=0;" vertex="1" parent="1">
          <mxGeometry x="930" y="325" width="60" height="30" as="geometry" />
        </mxCell>
        <mxCell id="7pLJqojAysfesaYuLBsF-55" value="V0.1" style="rounded=0;whiteSpace=wrap;html=1;fillColor=#dae8fc;strokeColor=#6c8ebf;" vertex="1" parent="1">
          <mxGeometry x="80" width="40" height="40" as="geometry" />
        </mxCell>
        <mxCell id="7pLJqojAysfesaYuLBsF-56" value="V0.2" style="rounded=0;whiteSpace=wrap;html=1;fillColor=#dae8fc;strokeColor=#6c8ebf;" vertex="1" parent="1">
          <mxGeometry x="760" width="40" height="40" as="geometry" />
        </mxCell>
        <mxCell id="7pLJqojAysfesaYuLBsF-57" value="" style="endArrow=classic;html=1;rounded=0;exitX=0.5;exitY=1;exitDx=0;exitDy=0;entryX=0.5;entryY=0;entryDx=0;entryDy=0;" edge="1" parent="1" source="7pLJqojAysfesaYuLBsF-55" target="7pLJqojAysfesaYuLBsF-3">
          <mxGeometry width="50" height="50" relative="1" as="geometry">
            <mxPoint x="210" y="70" as="sourcePoint" />
            <mxPoint x="260" y="20" as="targetPoint" />
          </mxGeometry>
        </mxCell>
        <mxCell id="7pLJqojAysfesaYuLBsF-58" value="" style="endArrow=classic;html=1;rounded=0;exitX=0.5;exitY=1;exitDx=0;exitDy=0;entryX=0.5;entryY=0;entryDx=0;entryDy=0;" edge="1" parent="1" source="7pLJqojAysfesaYuLBsF-56" target="7pLJqojAysfesaYuLBsF-4">
          <mxGeometry width="50" height="50" relative="1" as="geometry">
            <mxPoint x="480" y="90" as="sourcePoint" />
            <mxPoint x="530" y="40" as="targetPoint" />
          </mxGeometry>
        </mxCell>
      </root>
    </mxGraphModel>
  </diagram>
</mxfile>
